<svg xmlns="http://www.w3.org/2000/svg" xmlns:xlink="http://www.w3.org/1999/xlink" width="140" height="120" viewBox="0 0 140 120"><defs><radialGradient id="a" cx="-474.22" cy="479.05" r="1" gradientTransform="matrix(9.55, 0, 0, -12.18, 4600.55, 5902.31)" gradientUnits="userSpaceOnUse"><stop offset="0" stop-color="#db8034" stop-opacity="0.7"/><stop offset="0.1" stop-color="#dd863e" stop-opacity="0.63"/><stop offset="0.27" stop-color="#e19657" stop-opacity="0.51"/><stop offset="0.49" stop-color="#e9b082" stop-opacity="0.36"/><stop offset="0.74" stop-color="#f3d5bc" stop-opacity="0.18"/><stop offset="1" stop-color="#fff" stop-opacity="0"/></radialGradient></defs><path d="M105,0H35L0,60l35,60h70l35-60Z" fill="#ff6900"/><g opacity="0.75"><path d="M73.86,103.52a1.09,1.09,0,0,1-1.06-1,1.07,1.07,0,0,1,1-1.14A40.15,40.15,0,0,0,110,65.69a1.06,1.06,0,0,1,1.15-1,1.07,1.07,0,0,1,1,1.14A42.3,42.3,0,0,1,74,103.52Z" fill="#fafafa" opacity="0.75" style="isolation:isolate"/></g><g opacity="0.75"><path d="M28.93,58h-.1a1,1,0,0,1-.91-1.14,42.32,42.32,0,0,1,38.37-37.4,1.05,1.05,0,1,1,.19,2.1A40.18,40.18,0,0,0,30,57.12,1,1,0,0,1,28.93,58Z" fill="#fafafa" opacity="0.75" style="isolation:isolate"/></g><g opacity="0.75"><path d="M65.81,103.42h-.1A42.28,42.28,0,0,1,27.83,66a1,1,0,0,1,.91-1.15,1,1,0,0,1,1.15.91,40.21,40.21,0,0,0,36,35.54,1.05,1.05,0,0,1,1,1.14A1.11,1.11,0,0,1,65.81,103.42Z" fill="#fafafa" opacity="0.75" style="isolation:isolate"/></g><g opacity="0.75"><path d="M111,58.45a1,1,0,0,1-1-1A40.2,40.2,0,0,0,74.29,21.63a1,1,0,0,1-.91-1.15,1,1,0,0,1,1.15-.9A42.33,42.33,0,0,1,112,57.31a1.07,1.07,0,0,1-1,1.14Z" fill="#fafafa" opacity="0.75" style="isolation:isolate"/></g><path d="M118.4,60.64l-16.53,0a31.7,31.7,0,0,0-31-30.68l0-17.3a.87.87,0,0,0-1.73,0l0,17.3A31.71,31.71,0,0,0,38.32,60.5l-17,0a.86.86,0,1,0,0,1.71l17,0a31.69,31.69,0,0,0,30.89,31l-.15,16.58a.85.85,0,0,0,.82.86.88.88,0,0,0,.86-.81l.14-16.58a31.74,31.74,0,0,0,31-30.87l16.52,0a.89.89,0,0,0,.05-1.77ZM70.12,91.51a30,30,0,1,1,30.08-30.2v.33A30,30,0,0,1,70.12,91.51Z" fill="#fafafa" opacity="0.5" style="isolation:isolate"/><rect x="52.53" y="27.3" width="20.12" height="14.18" fill="none"/><path d="M63.94,38.4a5.75,5.75,0,0,0-1.62-1.24c-.91-.43-1.78-.86-3.12-1.38a26.91,26.91,0,0,1-2.63-1,2.27,2.27,0,0,1,.57-4.28s1.92-.72,7.38,2.62A28.19,28.19,0,0,1,68,35.59a14.57,14.57,0,0,0,1.2,1.28C69.55,37.11,63.94,38.4,63.94,38.4Z" fill="#fafafa"/><rect x="69.09" y="27.3" width="20.23" height="14.18" fill="none"/><path d="M72,36.87c.1.29,2.64.91,5.27,1.53a5.88,5.88,0,0,1,1.63-1.24c.91-.43,1.77-.86,3.11-1.38,1-.38,2.06-.62,2.64-1a2.29,2.29,0,0,0,1.29-2,2.25,2.25,0,0,0-1.87-2.24,4.82,4.82,0,0,0-1-.1,5.19,5.19,0,0,0-1.1.19,22.2,22.2,0,0,0-2.16.81c-.76.34-1.29.57-1.48.67-.39.19-.72.38-1,.52-.67.34-1.24.67-1.63.91s-.86.67-1.48,1.14c0,0-.39.34-1.06.91s-1,.85-1.39,1.19Z" fill="#fafafa"/><rect x="36.78" y="44.22" width="18.05" height="22.87" fill="none"/><path d="M51.44,59.07c-.24,1.62-.43,3.24-.67,4.86L43,61.79l-3.11-11.1L39.66,50v-.33a2.46,2.46,0,0,1,2.49-2.48,2.49,2.49,0,0,1,2.34,1.62l2.64,8.81C48.52,58.17,50,58.59,51.44,59.07Z" fill="#fafafa"/><rect x="37.59" y="63.32" width="18.05" height="25.72" fill="none"/><path d="M42.63,71.08,40.42,82.56l-.14.71v.33A2.52,2.52,0,0,0,43,85.89,2.45,2.45,0,0,0,45.21,84l1.87-9.14c.1-.58.24-1.19.34-1.77l4.74-1.85c-.58-1.62-1.1-3.24-1.68-4.86-2.54,1-5.08,2-7.61,3.09A6.52,6.52,0,0,1,42.63,71.08Z" fill="#fafafa"/><rect x="85.87" y="44.22" width="18.05" height="22.87" fill="none"/><path d="M88.61,59.07c.24,1.62.43,3.24.67,4.86l7.81-2.14,3.11-11.1.19-.67v-.33a2.46,2.46,0,0,0-2.49-2.48,2.51,2.51,0,0,0-2.35,1.62l-2.63,8.81C91.53,58.17,90.09,58.59,88.61,59.07Z" fill="#fafafa"/><rect x="85.06" y="63.32" width="18.05" height="25.72" fill="none"/><path d="M97.42,71.08l2.2,11.48.15.71v.33A2.53,2.53,0,0,1,97,85.89,2.45,2.45,0,0,1,94.83,84L93,74.89c-.09-.58-.24-1.19-.33-1.77l-4.74-1.85c.57-1.62,1.1-3.24,1.67-4.86,2.54,1,5.08,2,7.62,3.09C97.23,70,97.32,70.55,97.42,71.08Z" fill="#fafafa"/><rect x="53.34" y="33.02" width="34.94" height="22.52" fill="none"/><path d="M84.87,49.11a12.61,12.61,0,0,1-.38,3l-2.83-3-22.22.19-2.83,3.1a12.69,12.69,0,0,1-.47-3.29c0-7.19,6.41-13,14.36-13S84.87,41.92,84.87,49.11Z" fill="#fafafa"/><rect x="46.78" y="43.31" width="46.78" height="51.79" fill="none"/><path d="M70.35,46.3a46.38,46.38,0,0,1,14.33,2.29c6.37,2.14,5.46,3.81,5.41,8,0,0,.09,13.91-1.92,18.53s-3.35,6.62-6.94,9S70,91.89,70,91.89h-.14s-7.67-5.43-11.26-7.76-4.88-4.34-6.94-9-1.92-18.53-1.92-18.53c-.09-4.29-1-5.91,5.41-8A46.33,46.33,0,0,1,69.44,46.3Z" fill="#fafafa"/><path d="M70.12,81.22c5.26,0,9.53-5.46,9.53-12.19s-4.27-12.2-9.53-12.2S60.59,62.29,60.59,69,64.86,81.22,70.12,81.22Z" opacity="0.5" fill="url(#a)" style="isolation:isolate"/><path d="M70,52.35l.34,31-14.56-14,.62-9.53Z" fill="#fafafa"/></svg>