<svg xmlns="http://www.w3.org/2000/svg" xmlns:xlink="http://www.w3.org/1999/xlink" width="140" height="120" viewBox="0 0 140 120"><defs><radialGradient id="a" cx="-473.79" cy="479.05" r="1" gradientTransform="matrix(9.55, 0, 0, -12.18, 4596.24, 5901.43)" gradientUnits="userSpaceOnUse"><stop offset="0" stop-color="#d9705f" stop-opacity="0.7"/><stop offset="0" stop-color="#cf7262" stop-opacity="0.7"/><stop offset="0.01" stop-color="#b67969" stop-opacity="0.7"/><stop offset="0.01" stop-color="#8b8375" stop-opacity="0.7"/><stop offset="0.02" stop-color="#529185" stop-opacity="0.69"/><stop offset="0.03" stop-color="#13a096" stop-opacity="0.69"/><stop offset="0.12" stop-color="#1ea49b" stop-opacity="0.63"/><stop offset="0.27" stop-color="#3ab0a7" stop-opacity="0.52"/><stop offset="0.47" stop-color="#68c2bc" stop-opacity="0.38"/><stop offset="0.71" stop-color="#a7dcd8" stop-opacity="0.21"/><stop offset="0.98" stop-color="#f7fcfc" stop-opacity="0.02"/><stop offset="1" stop-color="#fff" stop-opacity="0"/></radialGradient></defs><path d="M105,0H35L0,60l35,60h70l35-60Z" fill="#00bfa5"/><g opacity="0.5"><path d="M49.53,96.9a.8.8,0,0,1-.68-.38l-21-36.16a.79.79,0,0,1,0-.81l21-35.78a.78.78,0,0,1,.68-.38H64.8a.81.81,0,1,1,0,1.62H50L29.5,60,50,95.32l40.14-.14,20.21-35.11L90.09,25H75.25a.8.8,0,0,1-.82-.81.81.81,0,0,1,.82-.81H90.57a.76.76,0,0,1,.67.39L112,59.6a.78.78,0,0,1,0,.81l-20.69,36a.75.75,0,0,1-.67.38Z" fill="#fafafa" opacity="0.5" style="isolation:isolate"/></g><g opacity="0.5"><path d="M45.74,72.36a.76.76,0,0,1-.67-.38l-6.8-11.43a.83.83,0,0,1,0-.81L54,32.3a.78.78,0,0,1,.72-.38L84.92,32a.77.77,0,0,1,.67.38l15.81,27.2a.83.83,0,0,1,0,.81L95.12,71.22a.79.79,0,0,1-1.1.28.78.78,0,0,1-.29-1.09l6-10.39L84.44,33.58l-29.21-.09L40,60.12l6.56,11a.8.8,0,0,1-.29,1.1A1.11,1.11,0,0,1,45.74,72.36Z" fill="#fafafa" opacity="0.5" style="isolation:isolate"/></g><path d="M41.59,50.94a2.93,2.93,0,0,1-.21-.73l.48-.12.19.67Z" fill="#00a5d9"/><path d="M42.08,50.92l-.59-.58a.37.37,0,0,1-.1-.32l-.07-.35H42L41.9,50Z" fill="#00a5d9"/><path d="M69.45,101.28A3.74,3.74,0,0,0,65.86,104H44.54L18.87,60,44.45,16H58.62a.81.81,0,1,0,0-1.62H44a.75.75,0,0,0-.67.38L17.24,59.55a.83.83,0,0,0,0,.81l26.15,44.87a.78.78,0,0,0,.67.38h21.7a3.7,3.7,0,0,0,7.33-.66A3.61,3.61,0,0,0,69.45,101.28Zm0,5.33A1.67,1.67,0,1,1,71.12,105,1.62,1.62,0,0,1,69.45,106.61Z" fill="#fafafa" opacity="0.75" style="isolation:isolate"/><path d="M122.71,59.74l-26.1-45a.85.85,0,0,0-.72-.38H73A3.6,3.6,0,1,0,73,16H95.46l25.67,44.16-25.77,44h-16a.8.8,0,0,0-.81.81.83.83,0,0,0,.81.81H95.84a.75.75,0,0,0,.67-.38L122.76,60.6A1.09,1.09,0,0,0,122.71,59.74Zm-53.36-43A1.67,1.67,0,1,1,71,15.1,1.69,1.69,0,0,1,69.35,16.77Z" fill="#fafafa" opacity="0.75" style="isolation:isolate"/><rect x="52.18" y="26.9" width="20.23" height="14.18" fill="none"/><path d="M63.65,37.92A5.75,5.75,0,0,0,62,36.68c-.91-.43-1.78-.85-3.12-1.38-1-.38-2.06-.62-2.63-.95a2.28,2.28,0,0,1,.57-4.29s1.92-.71,7.38,2.62a29.28,29.28,0,0,1,3.5,2.43,12.76,12.76,0,0,0,1.19,1.29C69.21,36.64,63.65,37.92,63.65,37.92Z" fill="#fafafa"/><rect x="68.84" y="26.9" width="20.12" height="14.18" fill="none"/><path d="M76.92,37.92a5.88,5.88,0,0,1,1.63-1.24c.91-.43,1.77-.85,3.11-1.38,1-.38,2.06-.62,2.64-.95a2.29,2.29,0,0,0,1.29-2.05,2.26,2.26,0,0,0-1.87-2.24s-1.91-.71-7.37,2.62a29.28,29.28,0,0,0-3.5,2.43,11.42,11.42,0,0,1-1.2,1.29C71.32,36.64,76.92,37.92,76.92,37.92Z" fill="#fafafa"/><rect x="38.84" y="44.5" width="17.01" height="21.49" fill="none"/><path d="M52.44,58.5l-2.06,4.38-5.6-1.67L41.86,50.83l-.19-.67v-.28A2.34,2.34,0,0,1,44,47.54a2.42,2.42,0,0,1,2.21,1.53l2.49,8.29Z" fill="#fafafa"/><rect x="39.65" y="63.48" width="16.55" height="24.01" fill="none"/><path d="M44.54,70.69l-2,10.58-.14.67v.28a2.32,2.32,0,0,0,2.54,2.1A2.37,2.37,0,0,0,47,82.6l1.72-8.48.34-2,3.73-1.43-2.44-4.2L44.88,68.6Z" fill="#fafafa"/><rect x="85.74" y="44.5" width="17.01" height="21.49" fill="none"/><path d="M88.51,58.5l2.06,4.38,5.61-1.67L99.1,50.83l.19-.67v-.28a2.35,2.35,0,0,0-2.35-2.34,2.4,2.4,0,0,0-2.2,1.53l-2.49,8.29Z" fill="#fafafa"/><rect x="85.4" y="63.48" width="16.67" height="24.01" fill="none"/><path d="M96.46,70.69l2,10.58.14.67v.28a2.33,2.33,0,0,1-2.54,2.1A2.36,2.36,0,0,1,94,82.6L92.3,74.12l-.34-2-3.73-1.43,2.44-4.2,5.46,2.15Z" fill="#fafafa"/><rect x="54.25" y="32.39" width="32.42" height="22.52" fill="none"/><path d="M83.24,48.5a12.74,12.74,0,0,1-.38,3l-2.59-3L60,48.73l-2.53,3.1A12.27,12.27,0,0,1,57,48.54a13.1,13.1,0,0,1,26.2,0Z" fill="#fafafa"/><rect x="46.54" y="43.25" width="48.05" height="51.22" fill="none"/><path d="M70.69,46.26l9.1.09A3.83,3.83,0,0,1,83,48.16l5.8,9.67a16.55,16.55,0,0,1,.91,15.39L82.14,89.94a2.14,2.14,0,0,1-2,1.29l-9.77,0h-.24l-9.77,0a2.15,2.15,0,0,1-2-1.29L50.86,73.22a16.55,16.55,0,0,1,.91-15.39l5.8-9.67a3.67,3.67,0,0,1,3.21-1.81l9.1-.09Z" fill="#fafafa"/><path d="M69.93,80.32c5.26,0,9.53-5.46,9.53-12.2s-4.27-12.19-9.53-12.19S60.4,61.39,60.4,68.12,64.66,80.32,69.93,80.32Z" opacity="0.5" fill="url(#a)" style="isolation:isolate"/><path d="M69.93,54.26l.33,31-14.56-14,.62-9.53Z" fill="#fafafa"/></svg>